<svg xmlns="http://www.w3.org/2000/svg" xmlns:xlink="http://www.w3.org/1999/xlink" width="500" zoomAndPan="magnify" viewBox="0 0 375 374.999991" height="500" preserveAspectRatio="xMidYMid meet" version="1.0"><defs><clipPath id="e146749b77"><path d="M 56.953125 0 L 317.953125 0 L 317.953125 375 L 56.953125 375 Z M 56.953125 0 " clip-rule="nonzero"/></clipPath></defs><rect x="-37.5" width="450" fill="#ffffff" y="-37.499999" height="449.999989" fill-opacity="1"/><rect x="-37.5" width="450" fill="#ffffff" y="-37.499999" height="449.999989" fill-opacity="1"/><g clip-path="url(#e146749b77)"><path fill="#a3a098" d="M 100.761719 2.355469 C 101.011719 2.105469 101.285156 1.882812 101.578125 1.683594 C 101.871094 1.488281 102.179688 1.324219 102.507812 1.1875 C 102.832031 1.054688 103.167969 0.953125 103.515625 0.882812 C 103.859375 0.8125 104.210938 0.777344 104.5625 0.777344 C 104.917969 0.777344 105.265625 0.8125 105.613281 0.882812 C 105.957031 0.953125 106.292969 1.054688 106.621094 1.1875 C 106.945312 1.324219 107.257812 1.488281 107.550781 1.683594 C 107.84375 1.882812 108.113281 2.105469 108.363281 2.355469 C 108.613281 2.601562 108.835938 2.875 109.035156 3.167969 C 109.230469 3.460938 109.394531 3.773438 109.53125 4.097656 C 109.664062 4.425781 109.765625 4.761719 109.835938 5.105469 C 109.90625 5.453125 109.9375 5.800781 109.9375 6.15625 C 109.9375 6.507812 109.90625 6.859375 109.835938 7.203125 C 109.765625 7.550781 109.664062 7.886719 109.53125 8.210938 C 109.394531 8.539062 109.230469 8.847656 109.035156 9.140625 C 108.835938 9.433594 108.613281 9.707031 108.363281 9.957031 C 107.476562 10.84375 106.613281 11.75 105.769531 12.679688 C 104.925781 13.609375 104.109375 14.5625 103.3125 15.53125 C 102.515625 16.5 101.746094 17.488281 100.996094 18.496094 C 100.25 19.503906 99.527344 20.53125 98.832031 21.574219 C 98.132812 22.617188 97.460938 23.675781 96.816406 24.75 C 96.171875 25.828125 95.554688 26.917969 94.960938 28.027344 C 94.371094 29.132812 93.804688 30.253906 93.269531 31.386719 C 92.734375 32.519531 92.226562 33.667969 91.746094 34.828125 C 91.265625 35.984375 90.8125 37.15625 90.390625 38.335938 C 89.96875 39.519531 89.574219 40.710938 89.210938 41.910156 C 88.847656 43.109375 88.511719 44.320312 88.207031 45.535156 C 87.902344 46.753906 87.628906 47.976562 87.382812 49.207031 C 87.136719 50.4375 86.921875 51.675781 86.738281 52.914062 C 86.554688 54.15625 86.402344 55.402344 86.277344 56.648438 C 86.15625 57.898438 86.0625 59.148438 86 60.402344 C 85.941406 61.65625 85.910156 62.910156 85.910156 64.164062 C 85.910156 65.417969 85.941406 66.671875 86 67.925781 C 86.0625 69.179688 86.15625 70.429688 86.277344 71.679688 C 86.402344 72.925781 86.554688 74.171875 86.738281 75.414062 C 86.921875 76.652344 87.136719 77.890625 87.382812 79.121094 C 87.628906 80.351562 87.902344 81.574219 88.207031 82.792969 C 88.511719 84.007812 88.847656 85.21875 89.210938 86.417969 C 89.574219 87.617188 89.96875 88.808594 90.390625 89.992188 C 90.8125 91.171875 91.265625 92.34375 91.746094 93.5 C 92.226562 94.660156 92.734375 95.808594 93.269531 96.941406 C 93.804688 98.074219 94.371094 99.195312 94.960938 100.304688 C 95.554688 101.410156 96.171875 102.5 96.816406 103.578125 C 97.460938 104.652344 98.132812 105.710938 98.832031 106.753906 C 99.527344 107.796875 100.25 108.824219 100.996094 109.832031 C 101.746094 110.839844 102.515625 111.828125 103.3125 112.796875 C 104.109375 113.769531 104.925781 114.71875 105.769531 115.648438 C 106.613281 116.578125 107.476562 117.484375 108.363281 118.371094 C 108.613281 118.621094 108.835938 118.894531 109.035156 119.1875 C 109.230469 119.480469 109.398438 119.789062 109.53125 120.117188 C 109.667969 120.441406 109.769531 120.777344 109.839844 121.125 C 109.90625 121.472656 109.941406 121.820312 109.941406 122.175781 C 109.941406 122.527344 109.90625 122.878906 109.839844 123.222656 C 109.769531 123.570312 109.667969 123.90625 109.535156 124.234375 C 109.398438 124.558594 109.234375 124.867188 109.035156 125.164062 C 108.839844 125.457031 108.617188 125.726562 108.367188 125.976562 C 108.117188 126.226562 107.847656 126.449219 107.550781 126.648438 C 107.257812 126.84375 106.949219 127.007812 106.621094 127.144531 C 106.296875 127.277344 105.960938 127.378906 105.613281 127.449219 C 105.265625 127.519531 104.917969 127.550781 104.5625 127.550781 C 104.210938 127.550781 103.863281 127.515625 103.515625 127.449219 C 103.167969 127.378906 102.832031 127.277344 102.507812 127.140625 C 102.179688 127.007812 101.871094 126.839844 101.578125 126.644531 C 101.285156 126.449219 101.011719 126.226562 100.761719 125.976562 C 99.75 124.964844 98.765625 123.925781 97.804688 122.867188 C 96.84375 121.808594 95.910156 120.726562 95 119.617188 C 94.09375 118.511719 93.214844 117.386719 92.359375 116.238281 C 91.507812 115.089844 90.683594 113.917969 89.890625 112.730469 C 89.09375 111.539062 88.332031 110.332031 87.59375 109.105469 C 86.859375 107.878906 86.152344 106.632812 85.480469 105.371094 C 84.804688 104.109375 84.160156 102.832031 83.550781 101.539062 C 82.9375 100.246094 82.359375 98.9375 81.8125 97.617188 C 81.265625 96.296875 80.75 94.960938 80.265625 93.613281 C 79.785156 92.265625 79.335938 90.910156 78.921875 89.539062 C 78.503906 88.171875 78.125 86.792969 77.777344 85.40625 C 77.429688 84.015625 77.117188 82.621094 76.835938 81.21875 C 76.558594 79.816406 76.3125 78.40625 76.101562 76.992188 C 75.894531 75.578125 75.71875 74.15625 75.578125 72.734375 C 75.4375 71.308594 75.332031 69.882812 75.261719 68.453125 C 75.191406 67.027344 75.15625 65.597656 75.15625 64.164062 C 75.15625 62.734375 75.191406 61.304688 75.261719 59.875 C 75.332031 58.449219 75.4375 57.019531 75.578125 55.597656 C 75.71875 54.171875 75.894531 52.753906 76.101562 51.339844 C 76.3125 49.925781 76.558594 48.515625 76.835938 47.113281 C 77.117188 45.707031 77.429688 44.3125 77.777344 42.925781 C 78.125 41.539062 78.503906 40.160156 78.921875 38.789062 C 79.335938 37.421875 79.785156 36.0625 80.265625 34.714844 C 80.75 33.371094 81.265625 32.035156 81.8125 30.714844 C 82.359375 29.390625 82.9375 28.085938 83.550781 26.792969 C 84.160156 25.5 84.804688 24.222656 85.480469 22.960938 C 86.152344 21.699219 86.859375 20.453125 87.59375 19.226562 C 88.332031 18 89.09375 16.792969 89.890625 15.601562 C 90.683594 14.414062 91.507812 13.242188 92.359375 12.09375 C 93.214844 10.945312 94.09375 9.816406 95 8.710938 C 95.910156 7.605469 96.84375 6.523438 97.804688 5.464844 C 98.765625 4.402344 99.75 3.367188 100.761719 2.355469 Z M 64.632812 353.898438 C 64.128906 353.902344 63.628906 353.949219 63.136719 354.050781 C 62.640625 354.148438 62.160156 354.292969 61.695312 354.488281 C 61.230469 354.679688 60.789062 354.917969 60.371094 355.199219 C 59.949219 355.476562 59.5625 355.796875 59.207031 356.152344 C 58.851562 356.507812 58.53125 356.898438 58.25 357.316406 C 57.972656 357.734375 57.734375 358.175781 57.542969 358.640625 C 57.347656 359.109375 57.203125 359.585938 57.101562 360.082031 C 57.003906 360.574219 56.953125 361.074219 56.953125 361.578125 L 56.953125 367.078125 C 56.953125 367.582031 57.003906 368.082031 57.101562 368.574219 C 57.203125 369.070312 57.347656 369.550781 57.542969 370.015625 C 57.734375 370.480469 57.972656 370.921875 58.25 371.339844 C 58.53125 371.761719 58.851562 372.148438 59.207031 372.503906 C 59.5625 372.859375 59.949219 373.179688 60.371094 373.460938 C 60.789062 373.738281 61.230469 373.976562 61.695312 374.167969 C 62.160156 374.363281 62.640625 374.507812 63.136719 374.609375 C 63.628906 374.707031 64.128906 374.757812 64.632812 374.757812 L 102.566406 374.757812 C 103.070312 374.757812 103.570312 374.707031 104.066406 374.609375 C 104.558594 374.507812 105.039062 374.363281 105.503906 374.167969 C 105.96875 373.976562 106.410156 373.738281 106.832031 373.460938 C 107.25 373.179688 107.636719 372.859375 107.992188 372.503906 C 108.351562 372.148438 108.667969 371.761719 108.949219 371.339844 C 109.226562 370.921875 109.464844 370.480469 109.660156 370.015625 C 109.851562 369.550781 109.996094 369.070312 110.097656 368.574219 C 110.195312 368.082031 110.246094 367.582031 110.246094 367.078125 L 110.246094 361.578125 C 110.246094 361.074219 110.195312 360.574219 110.097656 360.082031 C 109.996094 359.585938 109.851562 359.109375 109.660156 358.640625 C 109.464844 358.175781 109.226562 357.734375 108.949219 357.316406 C 108.667969 356.898438 108.351562 356.507812 107.992188 356.152344 C 107.636719 355.796875 107.25 355.476562 106.832031 355.199219 C 106.410156 354.917969 105.96875 354.679688 105.503906 354.488281 C 105.039062 354.292969 104.558594 354.148438 104.066406 354.050781 C 103.570312 353.949219 103.070312 353.902344 102.566406 353.898438 L 96.988281 353.898438 L 187.5 279.273438 L 278.007812 353.898438 L 272.433594 353.898438 C 271.929688 353.902344 271.429688 353.949219 270.933594 354.050781 C 270.441406 354.148438 269.960938 354.292969 269.496094 354.488281 C 269.03125 354.679688 268.589844 354.917969 268.167969 355.199219 C 267.75 355.476562 267.363281 355.796875 267.007812 356.152344 C 266.648438 356.507812 266.332031 356.898438 266.050781 357.316406 C 265.773438 357.734375 265.535156 358.175781 265.339844 358.640625 C 265.148438 359.109375 265.003906 359.585938 264.902344 360.082031 C 264.804688 360.574219 264.753906 361.074219 264.753906 361.578125 L 264.753906 367.078125 C 264.753906 367.582031 264.804688 368.082031 264.902344 368.574219 C 265.003906 369.070312 265.148438 369.550781 265.339844 370.015625 C 265.535156 370.480469 265.773438 370.921875 266.050781 371.339844 C 266.332031 371.761719 266.648438 372.148438 267.007812 372.503906 C 267.363281 372.859375 267.75 373.179688 268.167969 373.460938 C 268.589844 373.738281 269.03125 373.976562 269.496094 374.167969 C 269.960938 374.363281 270.441406 374.507812 270.933594 374.609375 C 271.429688 374.707031 271.929688 374.757812 272.433594 374.757812 L 310.367188 374.757812 C 310.871094 374.757812 311.371094 374.707031 311.863281 374.609375 C 312.359375 374.507812 312.839844 374.363281 313.304688 374.167969 C 313.769531 373.976562 314.210938 373.738281 314.628906 373.460938 C 315.050781 373.179688 315.4375 372.859375 315.792969 372.503906 C 316.148438 372.148438 316.46875 371.761719 316.75 371.339844 C 317.027344 370.921875 317.265625 370.480469 317.457031 370.015625 C 317.652344 369.550781 317.796875 369.070312 317.898438 368.574219 C 317.996094 368.082031 318.046875 367.582031 318.046875 367.078125 L 318.046875 361.578125 C 318.046875 361.074219 317.996094 360.574219 317.898438 360.082031 C 317.796875 359.585938 317.652344 359.109375 317.457031 358.640625 C 317.265625 358.175781 317.027344 357.734375 316.75 357.316406 C 316.46875 356.898438 316.148438 356.507812 315.792969 356.152344 C 315.4375 355.796875 315.050781 355.476562 314.628906 355.199219 C 314.210938 354.917969 313.769531 354.679688 313.304688 354.488281 C 312.839844 354.292969 312.359375 354.148438 311.863281 354.050781 C 311.371094 353.949219 310.871094 353.902344 310.367188 353.898438 L 300.914062 353.898438 L 201.042969 85.222656 C 201.792969 84.742188 202.519531 84.21875 203.214844 83.65625 C 203.910156 83.09375 204.574219 82.496094 205.207031 81.863281 C 205.839844 81.230469 206.4375 80.566406 206.996094 79.871094 C 207.558594 79.175781 208.082031 78.449219 208.5625 77.695312 C 209.046875 76.945312 209.488281 76.167969 209.890625 75.367188 C 210.289062 74.570312 210.644531 73.75 210.957031 72.910156 C 211.269531 72.074219 211.535156 71.21875 211.757812 70.355469 C 211.980469 69.488281 212.152344 68.609375 212.28125 67.726562 C 212.40625 66.839844 212.488281 65.949219 212.519531 65.058594 C 212.550781 64.164062 212.535156 63.269531 212.46875 62.378906 C 212.40625 61.484375 212.292969 60.597656 212.136719 59.71875 C 211.976562 58.839844 211.769531 57.96875 211.519531 57.113281 C 211.265625 56.253906 210.96875 55.410156 210.628906 54.585938 C 210.285156 53.757812 209.898438 52.953125 209.46875 52.167969 C 209.042969 51.382812 208.570312 50.621094 208.0625 49.886719 C 207.550781 49.152344 207.003906 48.449219 206.417969 47.773438 C 205.832031 47.097656 205.210938 46.453125 204.558594 45.84375 C 203.902344 45.234375 203.21875 44.664062 202.5 44.125 C 201.785156 43.589844 201.042969 43.09375 200.273438 42.636719 C 199.503906 42.179688 198.710938 41.765625 197.898438 41.394531 C 197.085938 41.023438 196.253906 40.699219 195.40625 40.414062 C 194.554688 40.132812 193.695312 39.894531 192.820312 39.707031 C 191.945312 39.515625 191.066406 39.375 190.175781 39.277344 C 189.285156 39.183594 188.394531 39.132812 187.5 39.132812 C 186.605469 39.132812 185.714844 39.183594 184.824219 39.277344 C 183.933594 39.375 183.054688 39.515625 182.179688 39.707031 C 181.304688 39.894531 180.445312 40.132812 179.59375 40.414062 C 178.746094 40.699219 177.914062 41.023438 177.101562 41.394531 C 176.289062 41.765625 175.496094 42.179688 174.726562 42.636719 C 173.957031 43.09375 173.214844 43.589844 172.5 44.125 C 171.78125 44.664062 171.097656 45.234375 170.441406 45.84375 C 169.789062 46.453125 169.167969 47.097656 168.582031 47.773438 C 167.996094 48.449219 167.449219 49.152344 166.9375 49.886719 C 166.429688 50.621094 165.957031 51.382812 165.53125 52.167969 C 165.101562 52.953125 164.714844 53.757812 164.371094 54.585938 C 164.03125 55.410156 163.734375 56.253906 163.480469 57.113281 C 163.230469 57.96875 163.023438 58.839844 162.863281 59.71875 C 162.707031 60.597656 162.59375 61.484375 162.53125 62.378906 C 162.464844 63.269531 162.449219 64.164062 162.480469 65.058594 C 162.511719 65.949219 162.59375 66.839844 162.71875 67.726562 C 162.847656 68.609375 163.019531 69.488281 163.242188 70.355469 C 163.464844 71.21875 163.730469 72.074219 164.042969 72.910156 C 164.355469 73.75 164.710938 74.570312 165.109375 75.367188 C 165.511719 76.167969 165.953125 76.945312 166.4375 77.695312 C 166.917969 78.449219 167.441406 79.175781 168.003906 79.871094 C 168.5625 80.566406 169.160156 81.230469 169.792969 81.863281 C 170.425781 82.496094 171.089844 83.09375 171.785156 83.65625 C 172.480469 84.21875 173.207031 84.742188 173.957031 85.222656 L 74.085938 353.898438 Z M 244.328125 232.414062 L 287.113281 347.527344 L 195.917969 272.332031 L 244.332031 232.417969 Z M 87.878906 347.527344 L 130.671875 232.417969 L 179.085938 272.332031 L 87.882812 347.527344 Z M 192.875 260.960938 L 192.875 186.039062 L 238.308594 223.5 Z M 162.40625 147.035156 L 182.125 93.992188 L 182.125 163.292969 Z M 195.917969 174.664062 L 216.542969 157.660156 L 234.769531 206.699219 Z M 179.082031 174.664062 L 140.230469 206.699219 L 158.457031 157.660156 Z M 182.125 186.039062 L 182.125 260.960938 L 136.691406 223.5 Z M 192.875 163.292969 L 192.875 93.992188 L 212.59375 147.035156 Z M 266.636719 9.957031 C 266.386719 9.707031 266.164062 9.433594 265.96875 9.140625 C 265.773438 8.847656 265.609375 8.539062 265.472656 8.210938 C 265.339844 7.886719 265.238281 7.550781 265.167969 7.203125 C 265.101562 6.859375 265.066406 6.507812 265.066406 6.15625 C 265.066406 5.804688 265.101562 5.453125 265.167969 5.109375 C 265.238281 4.761719 265.339844 4.425781 265.476562 4.101562 C 265.609375 3.773438 265.777344 3.464844 265.972656 3.171875 C 266.167969 2.878906 266.390625 2.605469 266.640625 2.359375 C 266.890625 2.109375 267.160156 1.886719 267.453125 1.691406 C 267.746094 1.492188 268.058594 1.328125 268.382812 1.191406 C 268.707031 1.058594 269.042969 0.957031 269.390625 0.886719 C 269.738281 0.816406 270.085938 0.785156 270.4375 0.78125 C 270.792969 0.78125 271.140625 0.816406 271.488281 0.886719 C 271.832031 0.953125 272.167969 1.054688 272.496094 1.191406 C 272.820312 1.324219 273.128906 1.492188 273.421875 1.6875 C 273.71875 1.882812 273.988281 2.105469 274.238281 2.351562 C 275.25 3.363281 276.234375 4.398438 277.195312 5.460938 C 278.15625 6.519531 279.09375 7.601562 280 8.707031 C 280.90625 9.816406 281.789062 10.941406 282.640625 12.089844 C 283.492188 13.238281 284.316406 14.410156 285.109375 15.597656 C 285.90625 16.789062 286.671875 17.996094 287.40625 19.222656 C 288.140625 20.449219 288.847656 21.695312 289.519531 22.957031 C 290.195312 24.21875 290.839844 25.496094 291.449219 26.789062 C 292.0625 28.082031 292.640625 29.390625 293.1875 30.710938 C 293.738281 32.03125 294.25 33.367188 294.734375 34.714844 C 295.214844 36.0625 295.664062 37.417969 296.078125 38.789062 C 296.496094 40.15625 296.875 41.535156 297.222656 42.921875 C 297.570312 44.308594 297.886719 45.707031 298.164062 47.109375 C 298.441406 48.511719 298.6875 49.921875 298.898438 51.335938 C 299.109375 52.75 299.28125 54.171875 299.421875 55.59375 C 299.5625 57.019531 299.667969 58.445312 299.738281 59.875 C 299.808594 61.300781 299.84375 62.730469 299.84375 64.164062 C 299.84375 65.59375 299.808594 67.023438 299.738281 68.453125 C 299.667969 69.878906 299.5625 71.308594 299.421875 72.730469 C 299.28125 74.152344 299.109375 75.574219 298.898438 76.988281 C 298.6875 78.402344 298.441406 79.8125 298.164062 81.214844 C 297.886719 82.617188 297.570312 84.015625 297.222656 85.402344 C 296.875 86.789062 296.496094 88.167969 296.078125 89.539062 C 295.664062 90.90625 295.214844 92.265625 294.734375 93.609375 C 294.25 94.957031 293.738281 96.292969 293.1875 97.613281 C 292.640625 98.9375 292.0625 100.242188 291.449219 101.535156 C 290.839844 102.828125 290.195312 104.105469 289.519531 105.367188 C 288.847656 106.628906 288.140625 107.875 287.40625 109.101562 C 286.671875 110.328125 285.90625 111.535156 285.109375 112.726562 C 284.316406 113.914062 283.492188 115.085938 282.640625 116.234375 C 281.789062 117.382812 280.90625 118.511719 280 119.617188 C 279.09375 120.722656 278.15625 121.804688 277.195312 122.863281 C 276.234375 123.925781 275.25 124.960938 274.238281 125.972656 C 273.988281 126.222656 273.71875 126.445312 273.421875 126.640625 C 273.128906 126.835938 272.820312 127 272.496094 127.136719 C 272.167969 127.273438 271.832031 127.375 271.484375 127.441406 C 271.140625 127.511719 270.789062 127.546875 270.4375 127.546875 C 270.085938 127.546875 269.734375 127.511719 269.386719 127.441406 C 269.042969 127.375 268.707031 127.273438 268.378906 127.136719 C 268.054688 127 267.742188 126.835938 267.449219 126.640625 C 267.15625 126.445312 266.886719 126.222656 266.636719 125.972656 C 266.386719 125.722656 266.164062 125.449219 265.96875 125.15625 C 265.769531 124.863281 265.605469 124.554688 265.46875 124.226562 C 265.335938 123.902344 265.234375 123.566406 265.164062 123.21875 C 265.097656 122.871094 265.0625 122.523438 265.0625 122.171875 C 265.0625 121.816406 265.097656 121.46875 265.164062 121.121094 C 265.234375 120.777344 265.335938 120.4375 265.46875 120.113281 C 265.605469 119.789062 265.769531 119.476562 265.96875 119.183594 C 266.164062 118.890625 266.386719 118.617188 266.636719 118.371094 C 267.523438 117.480469 268.386719 116.574219 269.230469 115.644531 C 270.074219 114.714844 270.894531 113.765625 271.6875 112.796875 C 272.484375 111.824219 273.257812 110.835938 274.003906 109.828125 C 274.75 108.820312 275.472656 107.796875 276.171875 106.753906 C 276.867188 105.710938 277.539062 104.648438 278.183594 103.574219 C 278.828125 102.496094 279.445312 101.40625 280.039062 100.300781 C 280.628906 99.191406 281.195312 98.074219 281.730469 96.9375 C 282.265625 95.804688 282.773438 94.65625 283.253906 93.5 C 283.734375 92.339844 284.1875 91.167969 284.609375 89.988281 C 285.03125 88.808594 285.425781 87.617188 285.789062 86.414062 C 286.15625 85.214844 286.488281 84.003906 286.792969 82.789062 C 287.097656 81.570312 287.375 80.347656 287.617188 79.117188 C 287.863281 77.886719 288.078125 76.652344 288.261719 75.410156 C 288.445312 74.167969 288.597656 72.925781 288.722656 71.675781 C 288.84375 70.425781 288.9375 69.175781 289 67.921875 C 289.0625 66.667969 289.089844 65.414062 289.089844 64.160156 C 289.089844 62.90625 289.0625 61.652344 289 60.398438 C 288.9375 59.144531 288.84375 57.894531 288.722656 56.648438 C 288.597656 55.398438 288.445312 54.152344 288.261719 52.914062 C 288.078125 51.671875 287.863281 50.4375 287.617188 49.203125 C 287.375 47.972656 287.097656 46.75 286.792969 45.535156 C 286.488281 44.316406 286.15625 43.109375 285.789062 41.90625 C 285.425781 40.707031 285.03125 39.515625 284.609375 38.335938 C 284.1875 37.152344 283.734375 35.984375 283.253906 34.824219 C 282.773438 33.664062 282.265625 32.519531 281.730469 31.382812 C 281.195312 30.25 280.628906 29.128906 280.039062 28.023438 C 279.445312 26.917969 278.828125 25.824219 278.183594 24.75 C 277.539062 23.671875 276.867188 22.613281 276.171875 21.570312 C 275.472656 20.527344 274.75 19.5 274.003906 18.492188 C 273.257812 17.484375 272.484375 16.496094 271.6875 15.527344 C 270.894531 14.558594 270.074219 13.609375 269.230469 12.679688 C 268.386719 11.75 267.523438 10.839844 266.636719 9.953125 Z M 255.9375 107.675781 C 255.6875 107.925781 255.417969 108.148438 255.125 108.34375 C 254.832031 108.539062 254.519531 108.703125 254.195312 108.839844 C 253.867188 108.976562 253.53125 109.078125 253.1875 109.144531 C 252.839844 109.214844 252.492188 109.25 252.136719 109.25 C 251.785156 109.25 251.433594 109.214844 251.089844 109.144531 C 250.742188 109.078125 250.40625 108.976562 250.082031 108.839844 C 249.753906 108.703125 249.445312 108.539062 249.152344 108.34375 C 248.859375 108.148438 248.585938 107.925781 248.335938 107.675781 C 248.085938 107.425781 247.863281 107.152344 247.667969 106.859375 C 247.472656 106.566406 247.304688 106.257812 247.171875 105.929688 C 247.035156 105.605469 246.933594 105.269531 246.863281 104.921875 C 246.796875 104.574219 246.761719 104.226562 246.761719 103.875 C 246.761719 103.519531 246.796875 103.171875 246.863281 102.824219 C 246.933594 102.476562 247.035156 102.140625 247.171875 101.816406 C 247.304688 101.488281 247.472656 101.179688 247.667969 100.886719 C 247.863281 100.59375 248.085938 100.320312 248.335938 100.070312 C 249.511719 98.894531 250.628906 97.664062 251.683594 96.378906 C 252.738281 95.09375 253.726562 93.757812 254.652344 92.375 C 255.578125 90.992188 256.429688 89.566406 257.214844 88.101562 C 258 86.632812 258.710938 85.132812 259.347656 83.59375 C 259.980469 82.058594 260.542969 80.496094 261.023438 78.902344 C 261.507812 77.3125 261.910156 75.699219 262.234375 74.070312 C 262.558594 72.4375 262.804688 70.792969 262.96875 69.136719 C 263.128906 67.484375 263.210938 65.824219 263.210938 64.160156 C 263.210938 62.496094 263.128906 60.835938 262.96875 59.183594 C 262.804688 57.527344 262.558594 55.882812 262.234375 54.253906 C 261.910156 52.621094 261.507812 51.007812 261.023438 49.417969 C 260.542969 47.824219 259.980469 46.261719 259.347656 44.726562 C 258.710938 43.1875 258 41.6875 257.214844 40.21875 C 256.429688 38.753906 255.578125 37.328125 254.652344 35.945312 C 253.726562 34.5625 252.738281 33.226562 251.683594 31.941406 C 250.628906 30.65625 249.511719 29.425781 248.335938 28.25 C 248.085938 28 247.863281 27.726562 247.667969 27.433594 C 247.46875 27.140625 247.304688 26.832031 247.167969 26.503906 C 247.03125 26.179688 246.929688 25.84375 246.863281 25.496094 C 246.792969 25.148438 246.757812 24.800781 246.757812 24.445312 C 246.757812 24.09375 246.792969 23.742188 246.859375 23.398438 C 246.929688 23.050781 247.03125 22.714844 247.167969 22.386719 C 247.300781 22.0625 247.46875 21.75 247.664062 21.457031 C 247.859375 21.164062 248.082031 20.890625 248.332031 20.640625 C 248.582031 20.394531 248.855469 20.167969 249.148438 19.972656 C 249.441406 19.777344 249.75 19.613281 250.078125 19.476562 C 250.402344 19.339844 250.742188 19.238281 251.085938 19.171875 C 251.433594 19.101562 251.78125 19.066406 252.136719 19.066406 C 252.488281 19.066406 252.839844 19.101562 253.1875 19.171875 C 253.53125 19.242188 253.867188 19.34375 254.195312 19.480469 C 254.519531 19.613281 254.832031 19.78125 255.125 19.976562 C 255.417969 20.171875 255.6875 20.394531 255.9375 20.648438 C 257.363281 22.070312 258.714844 23.5625 259.996094 25.121094 C 261.273438 26.679688 262.472656 28.296875 263.59375 29.972656 C 264.710938 31.648438 265.746094 33.375 266.695312 35.152344 C 267.648438 36.929688 268.507812 38.75 269.277344 40.609375 C 270.050781 42.472656 270.730469 44.367188 271.3125 46.296875 C 271.898438 48.222656 272.386719 50.175781 272.78125 52.152344 C 273.175781 54.128906 273.46875 56.121094 273.667969 58.128906 C 273.863281 60.132812 273.964844 62.144531 273.964844 64.160156 C 273.964844 66.175781 273.863281 68.183594 273.667969 70.191406 C 273.46875 72.195312 273.175781 74.1875 272.78125 76.164062 C 272.386719 78.140625 271.898438 80.09375 271.3125 82.023438 C 270.730469 83.953125 270.050781 85.847656 269.277344 87.707031 C 268.507812 89.570312 267.648438 91.390625 266.695312 93.167969 C 265.746094 94.945312 264.710938 96.671875 263.59375 98.347656 C 262.472656 100.023438 261.273438 101.640625 259.996094 103.199219 C 258.714844 104.753906 257.363281 106.246094 255.9375 107.671875 Z M 126.660156 100.070312 C 125.484375 98.894531 124.371094 97.664062 123.316406 96.378906 C 122.261719 95.09375 121.269531 93.757812 120.347656 92.375 C 119.421875 90.992188 118.566406 89.566406 117.785156 88.101562 C 117 86.632812 116.289062 85.132812 115.652344 83.59375 C 115.015625 82.058594 114.457031 80.496094 113.972656 78.902344 C 113.492188 77.3125 113.085938 75.699219 112.761719 74.070312 C 112.4375 72.4375 112.195312 70.792969 112.03125 69.136719 C 111.867188 67.484375 111.785156 65.824219 111.785156 64.160156 C 111.785156 62.496094 111.867188 60.835938 112.03125 59.183594 C 112.195312 57.527344 112.4375 55.882812 112.761719 54.253906 C 113.085938 52.621094 113.492188 51.007812 113.972656 49.417969 C 114.457031 47.828125 115.015625 46.261719 115.652344 44.726562 C 116.289062 43.1875 117 41.6875 117.785156 40.21875 C 118.566406 38.753906 119.421875 37.328125 120.347656 35.945312 C 121.269531 34.5625 122.261719 33.226562 123.316406 31.941406 C 124.371094 30.65625 125.484375 29.425781 126.660156 28.25 C 126.910156 28 127.132812 27.726562 127.332031 27.433594 C 127.527344 27.140625 127.691406 26.832031 127.828125 26.503906 C 127.960938 26.179688 128.0625 25.84375 128.132812 25.496094 C 128.203125 25.148438 128.238281 24.800781 128.238281 24.449219 C 128.238281 24.09375 128.203125 23.746094 128.132812 23.398438 C 128.0625 23.054688 127.960938 22.714844 127.828125 22.390625 C 127.691406 22.0625 127.527344 21.753906 127.332031 21.460938 C 127.132812 21.167969 126.910156 20.894531 126.660156 20.648438 C 126.414062 20.398438 126.140625 20.175781 125.847656 19.976562 C 125.554688 19.78125 125.246094 19.617188 124.917969 19.480469 C 124.59375 19.347656 124.253906 19.242188 123.910156 19.175781 C 123.5625 19.105469 123.214844 19.070312 122.859375 19.070312 C 122.507812 19.070312 122.160156 19.105469 121.8125 19.175781 C 121.464844 19.242188 121.128906 19.347656 120.804688 19.480469 C 120.476562 19.617188 120.167969 19.78125 119.875 19.976562 C 119.582031 20.175781 119.308594 20.398438 119.058594 20.648438 C 117.632812 22.070312 116.28125 23.5625 115.003906 25.121094 C 113.726562 26.679688 112.527344 28.296875 111.40625 29.972656 C 110.285156 31.648438 109.25 33.375 108.300781 35.152344 C 107.351562 36.929688 106.492188 38.75 105.71875 40.609375 C 104.949219 42.472656 104.269531 44.367188 103.683594 46.296875 C 103.101562 48.226562 102.609375 50.175781 102.21875 52.152344 C 101.824219 54.128906 101.527344 56.121094 101.332031 58.128906 C 101.132812 60.132812 101.035156 62.144531 101.035156 64.160156 C 101.035156 66.175781 101.132812 68.183594 101.332031 70.191406 C 101.527344 72.195312 101.824219 74.1875 102.21875 76.164062 C 102.609375 78.140625 103.101562 80.09375 103.683594 82.023438 C 104.269531 83.953125 104.949219 85.847656 105.71875 87.707031 C 106.492188 89.570312 107.351562 91.390625 108.300781 93.167969 C 109.25 94.945312 110.285156 96.671875 111.40625 98.347656 C 112.527344 100.023438 113.726562 101.640625 115.003906 103.199219 C 116.28125 104.753906 117.632812 106.246094 119.058594 107.671875 C 119.308594 107.921875 119.582031 108.144531 119.875 108.339844 C 120.167969 108.539062 120.476562 108.703125 120.804688 108.839844 C 121.128906 108.972656 121.464844 109.078125 121.8125 109.144531 C 122.160156 109.214844 122.507812 109.25 122.863281 109.25 C 123.214844 109.25 123.566406 109.214844 123.910156 109.148438 C 124.257812 109.078125 124.59375 108.976562 124.921875 108.839844 C 125.246094 108.707031 125.554688 108.539062 125.851562 108.34375 C 126.144531 108.148438 126.414062 107.925781 126.664062 107.675781 C 126.914062 107.425781 127.136719 107.152344 127.332031 106.859375 C 127.53125 106.566406 127.695312 106.257812 127.832031 105.929688 C 127.964844 105.605469 128.066406 105.265625 128.136719 104.921875 C 128.207031 104.574219 128.238281 104.226562 128.238281 103.871094 C 128.238281 103.519531 128.203125 103.167969 128.136719 102.824219 C 128.066406 102.476562 127.964844 102.140625 127.828125 101.8125 C 127.695312 101.488281 127.527344 101.175781 127.332031 100.882812 C 127.136719 100.589844 126.910156 100.320312 126.660156 100.070312 Z M 137.359375 38.945312 C 137.605469 38.695312 137.878906 38.472656 138.171875 38.277344 C 138.464844 38.078125 138.777344 37.914062 139.101562 37.777344 C 139.429688 37.644531 139.765625 37.539062 140.109375 37.472656 C 140.457031 37.402344 140.804688 37.367188 141.160156 37.367188 C 141.511719 37.367188 141.863281 37.402344 142.210938 37.472656 C 142.554688 37.539062 142.890625 37.640625 143.21875 37.777344 C 143.542969 37.910156 143.855469 38.078125 144.148438 38.273438 C 144.441406 38.46875 144.714844 38.691406 144.964844 38.941406 C 145.210938 39.191406 145.4375 39.464844 145.632812 39.757812 C 145.828125 40.050781 145.992188 40.359375 146.128906 40.6875 C 146.265625 41.011719 146.367188 41.351562 146.433594 41.695312 C 146.503906 42.042969 146.539062 42.390625 146.539062 42.746094 C 146.539062 43.097656 146.503906 43.449219 146.433594 43.792969 C 146.363281 44.140625 146.261719 44.476562 146.128906 44.804688 C 145.992188 45.128906 145.824219 45.441406 145.628906 45.734375 C 145.433594 46.027344 145.210938 46.296875 144.960938 46.546875 C 144.429688 47.078125 143.925781 47.632812 143.445312 48.207031 C 142.964844 48.785156 142.511719 49.382812 142.085938 50 C 141.65625 50.617188 141.261719 51.253906 140.890625 51.90625 C 140.523438 52.558594 140.183594 53.226562 139.875 53.910156 C 139.566406 54.59375 139.289062 55.292969 139.042969 56 C 138.796875 56.710938 138.582031 57.429688 138.402344 58.15625 C 138.222656 58.886719 138.074219 59.621094 137.957031 60.359375 C 137.84375 61.101562 137.761719 61.847656 137.714844 62.597656 C 137.667969 63.34375 137.652344 64.09375 137.671875 64.84375 C 137.695312 65.59375 137.746094 66.34375 137.835938 67.089844 C 137.921875 67.832031 138.042969 68.574219 138.199219 69.308594 C 138.351562 70.042969 138.539062 70.769531 138.757812 71.484375 C 138.980469 72.203125 139.230469 72.910156 139.515625 73.601562 C 139.796875 74.296875 140.113281 74.976562 140.457031 75.644531 C 140.804688 76.3125 141.175781 76.960938 141.582031 77.59375 C 141.984375 78.226562 142.414062 78.839844 142.875 79.433594 C 143.089844 79.710938 143.273438 80.007812 143.429688 80.324219 C 143.585938 80.636719 143.710938 80.964844 143.804688 81.304688 C 143.894531 81.644531 143.953125 81.988281 143.976562 82.339844 C 144 82.691406 143.992188 83.042969 143.945312 83.390625 C 143.902344 83.738281 143.820312 84.082031 143.710938 84.414062 C 143.597656 84.746094 143.453125 85.066406 143.28125 85.371094 C 143.105469 85.675781 142.902344 85.960938 142.671875 86.226562 C 142.4375 86.492188 142.183594 86.730469 141.90625 86.945312 C 141.628906 87.164062 141.332031 87.347656 141.015625 87.503906 C 140.699219 87.660156 140.375 87.785156 140.035156 87.878906 C 139.695312 87.96875 139.347656 88.027344 139 88.050781 C 138.648438 88.074219 138.296875 88.066406 137.949219 88.019531 C 137.601562 87.976562 137.257812 87.898438 136.925781 87.785156 C 136.589844 87.675781 136.273438 87.53125 135.96875 87.355469 C 135.660156 87.179688 135.375 86.976562 135.109375 86.746094 C 134.847656 86.515625 134.605469 86.261719 134.390625 85.984375 C 133.730469 85.136719 133.113281 84.257812 132.535156 83.355469 C 131.957031 82.449219 131.417969 81.523438 130.925781 80.570312 C 130.429688 79.617188 129.980469 78.644531 129.570312 77.652344 C 129.164062 76.65625 128.804688 75.648438 128.488281 74.621094 C 128.171875 73.59375 127.902344 72.558594 127.683594 71.507812 C 127.460938 70.457031 127.285156 69.398438 127.160156 68.332031 C 127.035156 67.265625 126.957031 66.195312 126.925781 65.125 C 126.898438 64.050781 126.917969 62.976562 126.984375 61.90625 C 127.050781 60.835938 127.167969 59.769531 127.332031 58.707031 C 127.496094 57.648438 127.707031 56.59375 127.964844 55.554688 C 128.222656 54.511719 128.53125 53.484375 128.882812 52.46875 C 129.234375 51.457031 129.628906 50.457031 130.074219 49.480469 C 130.515625 48.503906 131 47.546875 131.527344 46.609375 C 132.054688 45.675781 132.625 44.769531 133.238281 43.886719 C 133.847656 43.003906 134.496094 42.148438 135.183594 41.324219 C 135.871094 40.5 136.59375 39.707031 137.355469 38.949219 Z M 230.042969 46.546875 C 229.792969 46.296875 229.570312 46.027344 229.375 45.734375 C 229.175781 45.441406 229.011719 45.128906 228.875 44.804688 C 228.738281 44.476562 228.636719 44.140625 228.566406 43.792969 C 228.5 43.449219 228.464844 43.097656 228.464844 42.746094 C 228.464844 42.390625 228.5 42.042969 228.566406 41.695312 C 228.636719 41.347656 228.738281 41.011719 228.871094 40.6875 C 229.007812 40.359375 229.171875 40.050781 229.371094 39.757812 C 229.566406 39.460938 229.789062 39.191406 230.039062 38.941406 C 230.289062 38.691406 230.558594 38.46875 230.855469 38.273438 C 231.148438 38.074219 231.457031 37.910156 231.785156 37.773438 C 232.109375 37.640625 232.445312 37.539062 232.792969 37.46875 C 233.140625 37.402344 233.488281 37.367188 233.84375 37.367188 C 234.195312 37.367188 234.546875 37.402344 234.890625 37.46875 C 235.238281 37.539062 235.574219 37.640625 235.902344 37.777344 C 236.226562 37.914062 236.539062 38.078125 236.832031 38.277344 C 237.125 38.472656 237.394531 38.695312 237.644531 38.945312 C 238.40625 39.703125 239.128906 40.496094 239.816406 41.320312 C 240.503906 42.144531 241.152344 42.996094 241.765625 43.882812 C 242.375 44.765625 242.945312 45.671875 243.472656 46.605469 C 244.003906 47.542969 244.488281 48.5 244.929688 49.476562 C 245.371094 50.453125 245.769531 51.453125 246.121094 52.464844 C 246.472656 53.480469 246.777344 54.507812 247.039062 55.550781 C 247.296875 56.589844 247.507812 57.644531 247.671875 58.703125 C 247.835938 59.765625 247.953125 60.832031 248.019531 61.902344 C 248.085938 62.976562 248.105469 64.046875 248.078125 65.121094 C 248.046875 66.195312 247.96875 67.261719 247.84375 68.328125 C 247.71875 69.394531 247.542969 70.453125 247.324219 71.503906 C 247.101562 72.554688 246.832031 73.59375 246.515625 74.621094 C 246.199219 75.644531 245.839844 76.65625 245.433594 77.648438 C 245.027344 78.644531 244.574219 79.617188 244.078125 80.570312 C 243.585938 81.519531 243.046875 82.449219 242.46875 83.355469 C 241.890625 84.257812 241.269531 85.132812 240.613281 85.984375 C 240.398438 86.265625 240.160156 86.523438 239.894531 86.757812 C 239.628906 86.992188 239.34375 87.195312 239.039062 87.375 C 238.734375 87.550781 238.414062 87.699219 238.078125 87.8125 C 237.742188 87.925781 237.402344 88.007812 237.050781 88.054688 C 236.699219 88.101562 236.347656 88.113281 235.996094 88.089844 C 235.640625 88.066406 235.292969 88.007812 234.953125 87.914062 C 234.613281 87.824219 234.28125 87.699219 233.964844 87.542969 C 233.648438 87.386719 233.351562 87.199219 233.070312 86.984375 C 232.789062 86.765625 232.535156 86.523438 232.300781 86.257812 C 232.070312 85.992188 231.867188 85.703125 231.691406 85.398438 C 231.515625 85.089844 231.371094 84.769531 231.261719 84.433594 C 231.148438 84.097656 231.070312 83.753906 231.027344 83.402344 C 230.984375 83.050781 230.976562 82.699219 231 82.347656 C 231.027344 81.996094 231.085938 81.648438 231.183594 81.308594 C 231.277344 80.964844 231.402344 80.636719 231.5625 80.324219 C 231.722656 80.007812 231.910156 79.710938 232.128906 79.433594 C 232.589844 78.839844 233.019531 78.226562 233.421875 77.59375 C 233.828125 76.960938 234.203125 76.308594 234.546875 75.644531 C 234.890625 74.976562 235.207031 74.296875 235.488281 73.601562 C 235.773438 72.90625 236.023438 72.203125 236.246094 71.484375 C 236.464844 70.765625 236.652344 70.039062 236.804688 69.304688 C 236.960938 68.574219 237.082031 67.832031 237.167969 67.085938 C 237.253906 66.34375 237.308594 65.59375 237.328125 64.84375 C 237.351562 64.09375 237.335938 63.34375 237.289062 62.597656 C 237.242188 61.847656 237.160156 61.101562 237.046875 60.359375 C 236.929688 59.617188 236.78125 58.882812 236.601562 58.15625 C 236.421875 57.429688 236.207031 56.710938 235.960938 56 C 235.714844 55.292969 235.4375 54.59375 235.128906 53.910156 C 234.820312 53.226562 234.480469 52.558594 234.113281 51.90625 C 233.742188 51.253906 233.34375 50.617188 232.917969 50 C 232.492188 49.382812 232.039062 48.785156 231.558594 48.207031 C 231.078125 47.632812 230.574219 47.078125 230.042969 46.546875 Z M 230.042969 46.546875 " fill-opacity="1" fill-rule="evenodd"/></g></svg>