<svg xmlns="http://www.w3.org/2000/svg" xmlns:xlink="http://www.w3.org/1999/xlink" width="500" zoomAndPan="magnify" viewBox="0 0 375 374.999991" height="500" preserveAspectRatio="xMidYMid meet" version="1.0"><rect x="-37.5" width="450" fill="#ffffff" y="-37.499999" height="449.999989" fill-opacity="1"/><rect x="-37.5" width="450" fill="#ffffff" y="-37.499999" height="449.999989" fill-opacity="1"/><path fill="#a3a098" d="M 187.5 202.5 C 142.007812 202.5 105 165.492188 105 120 C 105 74.507812 142.007812 37.5 187.5 37.5 C 232.992188 37.5 270 74.507812 270 120 C 270 165.492188 232.992188 202.5 187.5 202.5 Z M 187.5 52.5 C 150.28125 52.5 120 82.78125 120 120 C 120 157.21875 150.28125 187.5 187.5 187.5 C 224.71875 187.5 255 157.21875 255 120 C 255 82.78125 224.71875 52.5 187.5 52.5 Z M 187.5 52.5 " fill-opacity="1" fill-rule="nonzero"/><path fill="#a3a098" d="M 187.5 375 C 185.210938 375 183.046875 373.953125 181.625 372.164062 C 181.339844 371.804688 152.832031 335.730469 124.757812 287.160156 C 86.765625 221.433594 67.5 165.191406 67.5 120 C 67.5 53.832031 121.332031 0 187.5 0 C 253.667969 0 307.5 53.832031 307.5 120 C 307.5 165.191406 288.234375 221.433594 250.242188 287.160156 C 222.167969 335.730469 193.660156 371.804688 193.375 372.164062 C 191.953125 373.953125 189.789062 375 187.5 375 Z M 187.5 15 C 129.601562 15 82.5 62.101562 82.5 120 C 82.5 208.171875 164.589844 324.410156 187.503906 355.132812 C 197.179688 342.1875 217.375 314.070312 237.363281 279.472656 C 273.433594 217.023438 292.5 161.878906 292.5 120 C 292.5 62.101562 245.398438 15 187.5 15 Z M 187.5 15 " fill-opacity="1" fill-rule="nonzero"/></svg>