<svg xmlns="http://www.w3.org/2000/svg" xmlns:xlink="http://www.w3.org/1999/xlink" width="500" zoomAndPan="magnify" viewBox="0 0 375 374.999991" height="500" preserveAspectRatio="xMidYMid meet" version="1.0"><defs><clipPath id="8f128d2271"><path d="M 98 1 L 276.984375 1 L 276.984375 373 L 98 373 Z M 98 1 " clip-rule="nonzero"/></clipPath></defs><rect x="-37.5" width="450" fill="#ffffff" y="-37.499999" height="449.999989" fill-opacity="1"/><rect x="-37.5" width="450" fill="#ffffff" y="-37.499999" height="449.999989" fill-opacity="1"/><g clip-path="url(#8f128d2271)"><path fill="#a3a098" d="M 105.132812 1.929688 C 100.695312 2.558594 97.582031 6.679688 98.210938 11.113281 C 98.839844 15.546875 102.960938 18.660156 107.394531 18.03125 L 268.410156 18.03125 C 271.304688 18.0625 274.007812 16.554688 275.484375 14.039062 C 276.933594 11.523438 276.933594 8.441406 275.484375 5.925781 C 274.007812 3.410156 271.304688 1.898438 268.410156 1.929688 L 107.394531 1.929688 C 107.144531 1.929688 106.890625 1.929688 106.640625 1.929688 C 106.390625 1.929688 106.136719 1.929688 105.886719 1.929688 C 105.632812 1.929688 105.382812 1.929688 105.132812 1.929688 Z M 187.398438 25.832031 C 187.054688 25.894531 186.707031 25.988281 186.394531 26.082031 C 184.347656 26.492188 182.554688 27.65625 181.359375 29.351562 L 149.160156 72.121094 C 146.453125 75.738281 147.175781 80.867188 150.792969 83.570312 C 154.410156 86.273438 159.535156 85.550781 162.242188 81.933594 L 179.851562 58.539062 L 179.851562 315.65625 L 162.242188 292.261719 C 160.480469 289.777344 157.460938 288.519531 154.441406 288.988281 C 151.515625 289.335938 149.03125 291.253906 147.933594 293.957031 C 146.832031 296.695312 147.304688 299.808594 149.160156 302.070312 L 181.359375 344.839844 C 182.871094 346.949219 185.324219 348.207031 187.902344 348.207031 C 190.480469 348.207031 192.933594 346.949219 194.445312 344.839844 L 226.648438 302.070312 C 229.351562 298.457031 228.628906 293.328125 225.011719 290.625 C 221.394531 287.921875 216.269531 288.644531 213.5625 292.261719 L 195.953125 315.65625 L 195.953125 58.539062 L 213.5625 81.933594 C 216.269531 85.550781 221.394531 86.273438 225.011719 83.570312 C 228.628906 80.867188 229.351562 75.738281 226.648438 72.121094 L 194.445312 29.351562 C 192.871094 27.027344 190.199219 25.707031 187.398438 25.832031 Z M 107.394531 34.132812 C 102.960938 34.132812 99.34375 37.75 99.34375 42.183594 C 99.34375 46.617188 102.960938 50.234375 107.394531 50.234375 C 111.828125 50.234375 115.445312 46.617188 115.445312 42.183594 C 115.445312 37.75 111.828125 34.132812 107.394531 34.132812 Z M 268.410156 34.132812 C 263.976562 34.132812 260.359375 37.75 260.359375 42.183594 C 260.359375 46.617188 263.976562 50.234375 268.410156 50.234375 C 272.84375 50.234375 276.460938 46.617188 276.460938 42.183594 C 276.460938 37.75 272.84375 34.132812 268.410156 34.132812 Z M 107.394531 66.335938 C 102.960938 66.335938 99.34375 69.953125 99.34375 74.386719 C 99.34375 78.820312 102.960938 82.4375 107.394531 82.4375 C 111.828125 82.4375 115.445312 78.820312 115.445312 74.386719 C 115.445312 69.953125 111.828125 66.335938 107.394531 66.335938 Z M 268.410156 66.335938 C 263.976562 66.335938 260.359375 69.953125 260.359375 74.386719 C 260.359375 78.820312 263.976562 82.4375 268.410156 82.4375 C 272.84375 82.4375 276.460938 78.820312 276.460938 74.386719 C 276.460938 69.953125 272.84375 66.335938 268.410156 66.335938 Z M 107.394531 98.539062 C 102.960938 98.539062 99.34375 102.15625 99.34375 106.589844 C 99.34375 111.023438 102.960938 114.640625 107.394531 114.640625 C 111.828125 114.640625 115.445312 111.023438 115.445312 106.589844 C 115.445312 102.15625 111.828125 98.539062 107.394531 98.539062 Z M 268.410156 98.539062 C 263.976562 98.539062 260.359375 102.15625 260.359375 106.589844 C 260.359375 111.023438 263.976562 114.640625 268.410156 114.640625 C 272.84375 114.640625 276.460938 111.023438 276.460938 106.589844 C 276.460938 102.15625 272.84375 98.539062 268.410156 98.539062 Z M 107.394531 130.742188 C 102.960938 130.742188 99.34375 134.359375 99.34375 138.792969 C 99.34375 143.226562 102.960938 146.84375 107.394531 146.84375 C 111.828125 146.84375 115.445312 143.226562 115.445312 138.792969 C 115.445312 134.359375 111.828125 130.742188 107.394531 130.742188 Z M 268.410156 130.742188 C 263.976562 130.742188 260.359375 134.359375 260.359375 138.792969 C 260.359375 143.226562 263.976562 146.84375 268.410156 146.84375 C 272.84375 146.84375 276.460938 143.226562 276.460938 138.792969 C 276.460938 134.359375 272.84375 130.742188 268.410156 130.742188 Z M 107.394531 162.945312 C 102.960938 162.945312 99.34375 166.5625 99.34375 170.996094 C 99.34375 175.429688 102.960938 179.046875 107.394531 179.046875 C 111.828125 179.046875 115.445312 175.429688 115.445312 170.996094 C 115.445312 166.5625 111.828125 162.945312 107.394531 162.945312 Z M 268.410156 162.945312 C 263.976562 162.945312 260.359375 166.5625 260.359375 170.996094 C 260.359375 175.429688 263.976562 179.046875 268.410156 179.046875 C 272.84375 179.046875 276.460938 175.429688 276.460938 170.996094 C 276.460938 166.5625 272.84375 162.945312 268.410156 162.945312 Z M 107.394531 195.148438 C 102.960938 195.148438 99.34375 198.765625 99.34375 203.199219 C 99.34375 207.632812 102.960938 211.25 107.394531 211.25 C 111.828125 211.25 115.445312 207.632812 115.445312 203.199219 C 115.445312 198.765625 111.828125 195.148438 107.394531 195.148438 Z M 268.410156 195.148438 C 263.976562 195.148438 260.359375 198.765625 260.359375 203.199219 C 260.359375 207.632812 263.976562 211.25 268.410156 211.25 C 272.84375 211.25 276.460938 207.632812 276.460938 203.199219 C 276.460938 198.765625 272.84375 195.148438 268.410156 195.148438 Z M 107.394531 227.351562 C 102.960938 227.351562 99.34375 230.96875 99.34375 235.402344 C 99.34375 239.835938 102.960938 243.453125 107.394531 243.453125 C 111.828125 243.453125 115.445312 239.835938 115.445312 235.402344 C 115.445312 230.96875 111.828125 227.351562 107.394531 227.351562 Z M 268.410156 227.351562 C 263.976562 227.351562 260.359375 230.96875 260.359375 235.402344 C 260.359375 239.835938 263.976562 243.453125 268.410156 243.453125 C 272.84375 243.453125 276.460938 239.835938 276.460938 235.402344 C 276.460938 230.96875 272.84375 227.351562 268.410156 227.351562 Z M 107.394531 259.554688 C 102.960938 259.554688 99.34375 263.171875 99.34375 267.605469 C 99.34375 272.039062 102.960938 275.65625 107.394531 275.65625 C 111.828125 275.65625 115.445312 272.039062 115.445312 267.605469 C 115.445312 263.171875 111.828125 259.554688 107.394531 259.554688 Z M 268.410156 259.554688 C 263.976562 259.554688 260.359375 263.171875 260.359375 267.605469 C 260.359375 272.039062 263.976562 275.65625 268.410156 275.65625 C 272.84375 275.65625 276.460938 272.039062 276.460938 267.605469 C 276.460938 263.171875 272.84375 259.554688 268.410156 259.554688 Z M 107.394531 291.757812 C 102.960938 291.757812 99.34375 295.375 99.34375 299.808594 C 99.34375 304.242188 102.960938 307.859375 107.394531 307.859375 C 111.828125 307.859375 115.445312 304.242188 115.445312 299.808594 C 115.445312 295.375 111.828125 291.757812 107.394531 291.757812 Z M 268.410156 291.757812 C 263.976562 291.757812 260.359375 295.375 260.359375 299.808594 C 260.359375 304.242188 263.976562 307.859375 268.410156 307.859375 C 272.84375 307.859375 276.460938 304.242188 276.460938 299.808594 C 276.460938 295.375 272.84375 291.757812 268.410156 291.757812 Z M 107.394531 323.960938 C 102.960938 323.960938 99.34375 327.578125 99.34375 332.011719 C 99.34375 336.445312 102.960938 340.0625 107.394531 340.0625 C 111.828125 340.0625 115.445312 336.445312 115.445312 332.011719 C 115.445312 327.578125 111.828125 323.960938 107.394531 323.960938 Z M 268.410156 323.960938 C 263.976562 323.960938 260.359375 327.578125 260.359375 332.011719 C 260.359375 336.445312 263.976562 340.0625 268.410156 340.0625 C 272.84375 340.0625 276.460938 336.445312 276.460938 332.011719 C 276.460938 327.578125 272.84375 323.960938 268.410156 323.960938 Z M 105.132812 356.164062 C 100.695312 356.792969 97.582031 360.910156 98.210938 365.34375 C 98.839844 369.78125 102.960938 372.894531 107.394531 372.265625 L 268.410156 372.265625 C 271.304688 372.296875 274.007812 370.785156 275.484375 368.269531 C 276.933594 365.753906 276.933594 362.671875 275.484375 360.15625 C 274.007812 357.640625 271.304688 356.132812 268.410156 356.164062 L 107.394531 356.164062 C 107.144531 356.164062 106.890625 356.164062 106.640625 356.164062 C 106.390625 356.164062 106.136719 356.164062 105.886719 356.164062 C 105.632812 356.164062 105.382812 356.164062 105.132812 356.164062 Z M 105.132812 356.164062 " fill-opacity="1" fill-rule="nonzero"/></g></svg>