<svg xmlns="http://www.w3.org/2000/svg" xmlns:xlink="http://www.w3.org/1999/xlink" width="500" zoomAndPan="magnify" viewBox="0 0 375 374.999991" height="500" preserveAspectRatio="xMidYMid meet" version="1.0"><rect x="-37.5" width="450" fill="#ffffff" y="-37.499999" height="449.999989" fill-opacity="1"/><rect x="-37.5" width="450" fill="#ffffff" y="-37.499999" height="449.999989" fill-opacity="1"/><path fill="#ffffff" d="M 147.21875 37.148438 C 146.046875 37.148438 145.265625 37.929688 144.480469 38.710938 C 121.410156 61.78125 121.410156 98.929688 144.480469 122.003906 C 146.046875 123.957031 149.566406 123.957031 151.128906 122.003906 C 152.695312 120.4375 152.695312 117.308594 151.128906 115.355469 C 131.578125 95.804688 131.578125 64.519531 151.128906 44.96875 C 153.867188 42.621094 151.128906 36.757812 147.21875 37.148438 Z M 128.449219 17.988281 C 128.449219 17.988281 128.058594 17.988281 127.667969 18.378906 C 126.886719 18.769531 125.710938 19.160156 125.320312 19.941406 C 91.691406 53.179688 91.300781 107.535156 124.929688 141.164062 C 126.886719 143.117188 130.015625 142.726562 131.578125 140.773438 C 133.140625 139.207031 133.140625 136.46875 131.1875 134.515625 C 101.078125 104.40625 101.078125 56.308594 131.1875 26.199219 C 135.488281 23.851562 132.75 17.207031 128.449219 17.988281 Z M 110.460938 0 C 110.070312 0 109.679688 0 109.289062 0.390625 C 108.507812 0.78125 107.335938 1.171875 106.941406 1.957031 C 63.148438 45.359375 63.148438 115.746094 106.941406 159.148438 C 108.898438 161.105469 112.417969 161.105469 113.980469 158.757812 C 115.546875 156.804688 115.15625 154.066406 113.589844 152.503906 C 73.3125 112.617188 73.3125 48.097656 113.589844 8.210938 C 116.328125 5.867188 114.371094 0 110.460938 0 Z M 110.460938 0 " fill-opacity="1" fill-rule="nonzero"/><path fill="#ffffff" d="M 227.773438 37.148438 C 228.945312 37.148438 229.726562 37.929688 230.507812 38.710938 C 253.582031 61.78125 253.582031 98.929688 230.507812 122.003906 C 228.945312 123.957031 225.425781 123.957031 223.863281 122.003906 C 222.296875 120.4375 222.296875 117.308594 223.863281 115.355469 C 243.414062 95.804688 243.414062 64.519531 223.863281 44.96875 C 221.125 42.621094 223.863281 36.757812 227.773438 37.148438 Z M 246.542969 17.988281 C 246.542969 17.988281 246.933594 17.988281 247.324219 18.378906 C 248.105469 18.769531 249.277344 19.160156 249.667969 19.941406 C 283.296875 53.179688 283.691406 107.535156 250.0625 141.164062 C 248.105469 143.117188 244.976562 142.726562 243.414062 140.773438 C 241.847656 139.207031 241.847656 136.46875 243.804688 134.515625 C 273.914062 104.40625 273.914062 56.308594 243.804688 26.199219 C 239.503906 23.851562 242.242188 17.207031 246.542969 17.988281 Z M 264.527344 0 C 264.921875 0 265.3125 0 265.703125 0.390625 C 266.484375 0.78125 267.65625 1.171875 268.046875 1.957031 C 311.84375 45.359375 311.84375 115.746094 268.046875 159.148438 C 266.09375 161.105469 262.574219 161.105469 261.011719 158.757812 C 259.445312 156.804688 259.835938 154.066406 261.402344 152.503906 C 301.675781 112.617188 301.675781 48.097656 261.402344 8.210938 C 258.664062 5.867188 260.617188 0 264.527344 0 Z M 264.527344 0 " fill-opacity="1" fill-rule="nonzero"/><path fill="#ffffff" d="M 96.777344 375 L 116.71875 308.914062 L 257.882812 308.914062 L 278.214844 375 L 294.636719 375 L 211.738281 103.625 C 218.386719 97.367188 222.6875 88.375 222.6875 78.207031 C 222.6875 58.65625 207.046875 43.011719 187.496094 43.011719 C 167.945312 43.011719 152.304688 58.65625 152.304688 78.207031 C 152.304688 88.375 156.605469 97.367188 163.25 103.625 L 80.351562 375 Z M 253.1875 293.273438 L 197.273438 293.273438 L 233.246094 226.796875 Z M 187.496094 278.414062 L 153.867188 215.851562 L 221.125 215.851562 Z M 229.726562 215.851562 Z M 187.496094 58.65625 C 198.445312 58.65625 207.046875 67.257812 207.046875 78.207031 C 207.046875 89.15625 198.445312 97.757812 187.496094 97.757812 C 176.546875 97.757812 167.945312 89.15625 167.945312 78.207031 C 167.945312 67.257812 176.546875 58.65625 187.496094 58.65625 Z M 176.9375 111.835938 C 180.066406 113.007812 183.585938 113.398438 187.496094 113.398438 C 191.40625 113.398438 194.535156 113.007812 198.054688 111.835938 L 225.035156 200.597656 L 149.957031 200.597656 Z M 145.265625 215.851562 Z M 142.136719 226.796875 L 178.109375 293.273438 L 121.800781 293.273438 Z M 142.136719 226.796875 " fill-opacity="1" fill-rule="nonzero"/></svg>