<svg width="500" height="500" viewBox="0 0 500 500" fill="none" xmlns="http://www.w3.org/2000/svg">
<g clip-path="url(#clip0_213_2)">
<path d="M111.192 177.771C95.1924 167.771 95.1924 169.771 79.6926 177.771L39.1924 201.271C28.6926 207.771 28.1926 213.271 28.1926 217.271V276.271C26.9926 282.671 31.6926 286.604 34.1926 287.771L85.1926 318.271C93.1926 324.271 101.192 320.271 104.692 318.271L129.692 303.271L155.193 287.771C160.192 284.271 161.692 279.771 161.692 275.771L161.192 216.271C160.692 206.771 154.192 203.771 151.693 202.271L111.192 177.771Z" fill="#0970B7"/>
<path d="M119 267C104.5 276 101.667 282.5 100 287V247.5C100 238.3 113.5 229.5 120 226C126.5 222.5 135.5 217 142.5 213.5C141.5 229 134.5 234 129.5 237C116.5 243 111.5 247.167 110 249C105.5 254 104.667 262 104.5 266.5C108 261.5 111.636 257.422 118.5 253.5C122 251.5 134 243.833 138.5 241C140.5 253.5 130.5 260.5 119 267Z" fill="white"/>
<path d="M70.5 266.5C85 275.5 87.8333 282 89.5 286.5V247C89.5 237.8 76 229 69.5 225.5C63 222 54 216.5 47 213C48 228.5 55 233.5 60 236.5C73 242.5 78 246.667 79.5 248.5C84 253.5 84.8333 261.5 85 266C81.5 261 77.8641 256.922 71 253C67.5 251 55.5 243.333 51 240.5C49 253 59 260 70.5 266.5Z" fill="white"/>
<path d="M180.622 224.314V218.455H221.531V224.314H204.379V273H197.774V224.314H180.622ZM242.092 273.852C238.151 273.852 234.75 272.982 231.892 271.242C229.051 269.484 226.858 267.034 225.313 263.891C223.786 260.731 223.023 257.055 223.023 252.865C223.023 248.675 223.786 244.982 225.313 241.786C226.858 238.572 229.006 236.068 231.759 234.275C234.528 232.464 237.76 231.558 241.453 231.558C243.584 231.558 245.688 231.913 247.765 232.624C249.843 233.334 251.734 234.488 253.438 236.086C255.143 237.666 256.501 239.761 257.513 242.371C258.525 244.982 259.031 248.195 259.031 252.013V254.676H227.497V249.243H252.639C252.639 246.935 252.178 244.875 251.254 243.064C250.349 241.253 249.053 239.824 247.366 238.776C245.697 237.728 243.726 237.205 241.453 237.205C238.95 237.205 236.783 237.826 234.955 239.069C233.143 240.294 231.75 241.892 230.773 243.863C229.797 245.834 229.308 247.947 229.308 250.202V253.824C229.308 256.913 229.841 259.532 230.906 261.681C231.989 263.811 233.49 265.436 235.407 266.555C237.325 267.656 239.553 268.206 242.092 268.206C243.744 268.206 245.235 267.975 246.567 267.513C247.916 267.034 249.079 266.324 250.056 265.383C251.032 264.424 251.787 263.234 252.32 261.814L258.392 263.518C257.753 265.578 256.679 267.389 255.169 268.952C253.66 270.496 251.796 271.704 249.576 272.574C247.357 273.426 244.862 273.852 242.092 273.852ZM274.878 218.455V273H268.593V218.455H274.878ZM303.543 273.852C299.601 273.852 296.201 272.982 293.342 271.242C290.501 269.484 288.308 267.034 286.763 263.891C285.236 260.731 284.473 257.055 284.473 252.865C284.473 248.675 285.236 244.982 286.763 241.786C288.308 238.572 290.457 236.068 293.209 234.275C295.979 232.464 299.21 231.558 302.903 231.558C305.034 231.558 307.138 231.913 309.215 232.624C311.293 233.334 313.184 234.488 314.888 236.086C316.593 237.666 317.951 239.761 318.963 242.371C319.975 244.982 320.481 248.195 320.481 252.013V254.676H288.947V249.243H314.089C314.089 246.935 313.628 244.875 312.704 243.064C311.799 241.253 310.503 239.824 308.816 238.776C307.147 237.728 305.176 237.205 302.903 237.205C300.4 237.205 298.234 237.826 296.405 239.069C294.594 240.294 293.2 241.892 292.223 243.863C291.247 245.834 290.758 247.947 290.758 250.202V253.824C290.758 256.913 291.291 259.532 292.356 261.681C293.44 263.811 294.94 265.436 296.858 266.555C298.775 267.656 301.003 268.206 303.543 268.206C305.194 268.206 306.685 267.975 308.017 267.513C309.366 267.034 310.529 266.324 311.506 265.383C312.483 264.424 313.237 263.234 313.77 261.814L319.842 263.518C319.203 265.578 318.129 267.389 316.62 268.952C315.11 270.496 313.246 271.704 311.027 272.574C308.807 273.426 306.312 273.852 303.543 273.852ZM347.834 232.091V237.418H326.634V232.091H347.834ZM332.813 222.29H339.098V261.281C339.098 263.057 339.356 264.388 339.871 265.276C340.403 266.146 341.078 266.732 341.895 267.034C342.729 267.318 343.608 267.46 344.532 267.46C345.224 267.46 345.792 267.425 346.236 267.354C346.68 267.265 347.035 267.194 347.301 267.141L348.58 272.787C348.154 272.947 347.559 273.107 346.795 273.266C346.032 273.444 345.064 273.533 343.892 273.533C342.117 273.533 340.377 273.151 338.672 272.387C336.985 271.624 335.583 270.461 334.464 268.898C333.363 267.336 332.813 265.365 332.813 262.986V222.29ZM366.557 273L354.093 232.091H360.698L369.54 263.412H369.967L378.702 232.091H385.414L394.043 263.305H394.469L403.312 232.091H409.917L397.452 273H391.273L382.324 241.572H381.685L372.736 273H366.557ZM418.226 273V232.091H424.512V273H418.226ZM421.422 225.273C420.197 225.273 419.141 224.855 418.253 224.021C417.383 223.186 416.948 222.183 416.948 221.011C416.948 219.839 417.383 218.836 418.253 218.002C419.141 217.167 420.197 216.75 421.422 216.75C422.648 216.75 423.695 217.167 424.565 218.002C425.453 218.836 425.897 219.839 425.897 221.011C425.897 222.183 425.453 223.186 424.565 224.021C423.695 224.855 422.648 225.273 421.422 225.273ZM442.31 248.391V273H436.024V232.091H442.097V238.483H442.629C443.588 236.406 445.044 234.737 446.997 233.476C448.95 232.197 451.472 231.558 454.561 231.558C457.331 231.558 459.755 232.126 461.832 233.263C463.91 234.381 465.525 236.086 466.68 238.376C467.834 240.649 468.411 243.526 468.411 247.006V273H462.125V247.432C462.125 244.218 461.291 241.714 459.622 239.921C457.953 238.11 455.662 237.205 452.75 237.205C450.744 237.205 448.95 237.64 447.37 238.51C445.808 239.38 444.574 240.649 443.668 242.318C442.763 243.987 442.31 246.011 442.31 248.391Z" fill="white"/>
</g>
<defs>
<clipPath id="clip0_213_2">
<rect width="500" height="500" fill="white"/>
</clipPath>
</defs>
</svg>
