<svg width="500" height="500" viewBox="0 0 500 500" fill="none" xmlns="http://www.w3.org/2000/svg">
<path d="M307.487 23.8708C254.504 -9.24355 254.504 -2.62067 203.177 23.8708L69.0629 101.69C34.2935 123.214 32.6378 141.427 32.6378 154.673V350.048C28.6641 371.241 44.2279 384.266 52.5065 388.129L221.39 489.128C247.881 508.997 274.371 495.751 285.962 489.128L368.748 439.457L453.191 388.129C469.747 376.539 474.714 361.638 474.714 348.392L473.059 151.361C471.403 119.903 449.879 109.968 441.601 105.001L307.487 23.8708Z" fill="#0970B7"/>
<path d="M333.341 319.348C285.325 349.151 275.942 370.676 270.423 385.577V254.775C270.423 224.31 315.128 195.169 336.652 183.579C358.177 171.989 387.979 153.776 411.16 142.186C407.848 193.514 384.668 210.071 368.111 220.005C325.062 239.874 308.505 253.671 303.538 259.742C288.636 276.3 285.877 302.791 285.325 317.693C296.915 301.135 308.955 287.632 331.685 274.644C343.275 268.021 383.012 242.633 397.914 233.251C404.537 274.644 371.422 297.824 333.341 319.348Z" fill="white"/>
<path d="M172.736 317.693C220.752 347.496 230.134 369.02 235.653 383.921V253.12C235.653 222.654 190.949 193.514 169.425 181.924C147.9 170.334 118.097 152.121 94.9171 140.531C98.2285 191.858 121.409 208.415 137.966 218.349C181.015 238.218 197.572 252.016 202.539 258.087C217.44 274.644 220.2 301.135 220.752 316.037C209.162 299.48 197.122 285.977 174.392 272.988C162.802 266.365 123.064 240.978 108.163 231.595C101.54 272.988 134.654 296.168 172.736 317.693Z" fill="white"/>
</svg>
